<svg xmlns="http://www.w3.org/2000/svg"  viewBox="0 0 80 80" width="256px" height="256px"><path fill="#c2e8ff" d="M8.308,43.743l-0.176-0.204C4.447,39.253,2.5,34.226,2.5,29C2.5,14.939,16.631,3.5,34,3.5 S65.5,14.939,65.5,29S51.369,54.5,34,54.5c-5.136,0-10.239-1.028-14.759-2.974l-0.175-0.075L4.741,56.226L8.308,43.743z"/><path fill="#7496c4" d="M34,4c17.093,0,31,11.215,31,25S51.093,54,34,54c-5.068,0-10.103-1.014-14.561-2.933l-0.35-0.151 l-0.362,0.121L5.482,55.452L8.714,44.14l0.148-0.518l-0.351-0.409C4.906,39.019,3,34.104,3,29C3,15.215,16.907,4,34,4 M34,3 C16.327,3,2,14.641,2,29c0,5.529,2.131,10.652,5.753,14.865L4,57l15.044-5.015C23.508,53.907,28.596,55,34,55 c17.673,0,32-11.641,32-26C66,14.641,51.673,3,34,3L34,3z"/><path fill="#f2faff" d="M64.972,70.242l-0.208,0.089C61.405,71.771,57.783,72.5,54,72.5c-12.958,0-23.5-8.748-23.5-19.5 S41.042,33.5,54,33.5S77.5,42.248,77.5,53c0,3.478-1.122,6.895-3.245,9.882l-0.132,0.186l3.145,13.03L64.972,70.242z"/><path fill="#788b9c" d="M54,34c12.682,0,23,8.523,23,19c0,3.373-1.09,6.69-3.153,9.593l-0.264,0.371l0.107,0.443 l2.845,11.788L65.39,69.888l-0.408-0.194l-0.416,0.178C61.272,71.284,57.717,72,54,72c-12.682,0-23-8.523-23-19S41.318,34,54,34 M54,33c-13.255,0-24,8.954-24,20c0,11.046,10.745,20,24,20c3.95,0,7.674-0.8,10.96-2.209L78,77l-3.338-13.828 C76.78,60.191,78,56.715,78,53C78,41.954,67.255,33,54,33L54,33z"/><path fill="#424e5c" d="M46 47A2 2 0 1 0 46 51 2 2 0 1 0 46 47zM62 47A2 2 0 1 0 62 51 2 2 0 1 0 62 47zM24 19A3 3 0 1 0 24 25 3 3 0 1 0 24 19zM46 19A3 3 0 1 0 46 25 3 3 0 1 0 46 19z"/></svg>